# Exported from DAZ Studio 4.9
mtllib tpomA.mtl

o tpom3
v -55.206615 151.9996 -6.000658
v 55.206615 151.9996 -6.000658
v 55.206615 0.95981407 -6.000658
v -55.206615 0.95981407 -6.000658
v -55.206615 0.95981407 6.000658
v -55.206615 151.9996 6.000658
v 55.206615 0.95981407 6.000658
v 55.206615 151.9996 6.000658
v 55.206615 0.95981407 -5.5284057
v -54.683392 0.95981407 -5.5284057
v 55.206615 0.95981407 5.6059551
v 55.206615 151.9996 5.6059551
v -54.683392 151.9996 -5.5289245
v 55.206615 151.9996 -5.5289245
v -54.683392 0.95981407 5.6059551
v -54.683392 151.9996 5.6059551
v 54.381638 1.8878458 -5.4349027
v 54.381638 1.8878458 5.3408818
v -54.795479 1.8878458 5.3408818
v -54.795479 1.8878458 -5.4349027
v 54.381638 151.18793 -5.4349027
v 54.381638 151.18793 5.3408818
v -54.795479 151.18793 5.3408818
v -54.795479 151.18793 -5.4349027
v -54.795479 4.2289348 5.3408818
v -54.795479 4.2289348 -5.4349027
v 51.134319 148.67316 -5.4349027
v -54.795479 148.67316 -5.4349027
v -54.795479 148.67316 5.3408818
v 51.134319 148.67316 5.3408818
v 51.134319 4.2289348 5.3408818
v 51.134319 4.2289348 -5.4349027
vt 0.48300001 0.5
vt 1 0.5
vt 0 1
vt 0.48300001 1
vt 0.51300001 1
vt 0.51300001 0.5
vt 1 1
vt 0.99910003 0.5
vt 1 0.51964998
vt 0.0047000004 0.51964998
vt 0.29730001 0.56645
vt 0.29730001 0.99014997
vt 0.0047000004 0.51964998
vt 1 0.51964998
vt 1 0.56645
vt 1 0.99014997
vt 0.95050007 -0.00070000003
vt 0.94440007 -0.00075000001
vt 0.49380001 -0.00075000001
vt 0.5 -0.00070000003
vt 0.95050007 0.47525004
vt 1.0042 0.4763
vt 0.50410002 0.50105
vt 0.5 0.49690002
vt 0.45250002 0.0071
vt 0.5 0.0071
vt 0.96140003 0.49275002
vt 0.5 0.48850003
vt 0.45250002 0.48850003
vt 0.98970002 0.48185003
vt 0.98970002 -0.01575
vt 0.93710011 0.0071
vt 0.0047000004 0.98355007
vt 1 0.98355007
vt 0 1
vt 1 0.5
vt 0 0.5
vt 0.99910003 1
vt 1.0007 1
vt 1.0007 0.5
vt 0 1
vt 0.0047000004 0.98355007
vt 0 0.5
vt 1 1
vt 0.99810004 0.5
vt 0.99810004 1
vt 0 0.56645
vt 0.70269996 0.56645
vt 0.70269996 0.99014997
vt 0 0.99014997
vt 0.1329 1
vt 0.1329 0.5
vt 0.98030001 0.5
vt 0.98030001 1
vt 1 0.98355007
vt 1 1
vt 0 0.5
vt 1.0042 0.00030000001
vt 0.95050007 0.49690002
vt 0.45250002 -0.00070000003
vt 0.45250002 0.49690002
vt 0.93710011 0.48850003
vt 0.015400001 0.48850003
vt 0.0020000001 0.49690002
vt 0.95350009 0.49994999
vt 0.62440002 0.49994999
vt 0.62219995 0.49775001
vt 0.0020000001 -0.00070000003
vt 0.015400001 0.0071
vt 0.94600004 -0.00075000001
vt 0.94930005 -0.00075000001
vt 0.62010002 -0.00075000001
vt 0.96140003 -0.0049000001
vt 0.95470005 0.50105
vt 0.95140004 0.49775001
vt 0.61689997 -0.00075000001
vn 0 0 -0.99831033
vn -0.9983086 0 0
vn 0 0.99831247 0
vn 0 0.99831253 0
vn 0.99830759 0 0
vn 0 0 -0.99831033
vn 0 0 -0.99831033
vn 0 -0.99831241 0
vn 0.99830753 0 0
vn 0 0 -0.99831033
vn 0 -0.99831241 0
vn -0.9983086 0 0
vn -0.9983086 0 0
vn 0 -0.99887645 0
vn 0 0 0.99831033
vn -0.9983086 0 0
vn 0 0.99887639 0
vn 0 0 0.99831033
vn 0 -0.99831027 0
vn 0.99830753 0 0
vn 0 0 0.99831033
vn 0.99830753 0 0
vn 0 0.99831027 0
vn 0 0 0.99831033
vn 0 -0.99831253 0
vn 0.99830759 0 0
vn 0 3.4290467e-06 0.9983108
vn 0 -0.9983117 0
vn 0 3.4290467e-06 0.9983108
vn 0.99831235 0 0
vn 0 0 -0.9983108
vn 0 -0.99831033 0
vn 0.99830753 0 0
vn 0 0 -0.9983108
vn 0.99830753 0 0
vn 0 0.99831033 0
vn 0 0.99831182 0
vn 0 3.4290467e-06 0.9983108
vn 0.99831235 0 0
vn 0 0.99831253 0
vn 0.99830753 0 0
vn 0 3.4290467e-06 0.9983108
vn 0 0 -0.9983108
vn 0 -0.99887305 0
vn 0.99831235 0 0
vn 0 0 -0.9983108
vn 0 0.99887311 0
vn 0.99831235 0 0
vn 0 -0.99830884 0
vn 0.99831235 0 0
vn 0 0 -0.99831039
vn 0 -0.99830884 0
vn 0.99831235 0 0
vn 0 0 0.99887997
vn 0 -0.99830884 0
vn -0.99831253 0 0
vn 0 0 0.99831241
vn 0 -0.99830884 0
vn -0.99831253 0 0
vn 0 0 -0.99831241
vn 0.99831235 0 0
vn 0 0.99830884 0
vn 0 0 -0.99830812
vn 0.99831235 0 0
vn 0 0 0.998308
vn 0 0.99830884 0
vn 0 0.99830884 0
vn -0.99831128 0 0
vn 0 0 0.99830723
vn 0 0.99830884 0
vn -0.99831128 0 0
vn 0 0 -0.99830782
vn -0.99831253 0 0
vn 0 0 0.99831241
vn 0 0.99830759 0
vn 0 0 -0.99831241
vn 0 0.99830759 0
vn -0.99831253 0 0
vn -0.99831146 0 0
vn 0 0 -0.998308
vn 0 -0.99830759 0
vn -0.99831128 0 0
vn 0 -0.99830759 0
vn 0 0 -0.99830836
vn -0.99831128 0 0
vn 0 0 0.99830782
vn 0 -0.99830759 0
vn -0.99831146 0 0
vn 0 0 0.99830782
vn 0 -0.99830759 0
vn -0.99831146 0 0
vn 0 0 0.99887127
vn 0 0.99830759 0
vn 0 0 -0.99830991
vn 0 0.99830759 0
vn -0.99831146 0 0
g tpom_Cover_1
usemtl material_1
f 16/16/46 12/12/34 11/11/31
f 3/3/7 4/4/10 1/1/1
f 5/5/13 6/6/16 1/1/2
f 11/11/31 15/15/43 16/16/46
f 15/33/44 11/34/32 7/7/19
f 10/10/28 15/33/44 5/35/14
f 3/36/8 9/9/25 10/10/28
f 10/10/28 4/37/11 3/36/8
f 7/38/20 11/39/33 12/40/35
f 6/41/17 16/42/47 13/13/37
f 13/13/37 14/14/40 2/2/4
f 13/13/37 1/43/3 6/41/17
f 3/44/9 2/2/5 14/45/41
f 14/45/41 9/46/26 3/44/9
f 10/47/29 9/48/27 14/49/42
f 14/49/42 13/50/38 10/47/29
f 15/51/45 10/52/30 13/53/39
f 13/53/39 16/54/48 15/51/45
f 8/8/22 7/38/20 12/40/35
f 12/55/36 16/42/47 8/56/23
f 4/37/11 10/10/28 5/35/14
f 5/5/13 1/1/2 4/4/12
f 2/57/6 3/3/7 1/1/1
f 1/43/3 13/13/37 2/2/4
f 5/35/14 15/33/44 7/7/19
f 7/38/21 8/8/24 5/5/15
f 6/6/18 5/5/15 8/8/24
f 8/56/23 16/42/47 6/41/17
g tpom_BKpages_1
usemtl material_2
f 17/17/49 18/18/52 19/19/55
f 19/19/55 20/20/58 17/17/49
f 18/58/53 17/17/50 21/21/61
f 21/21/61 22/22/64 18/58/53
f 31/31/91 30/30/88 27/27/79
f 21/59/62 24/24/70 23/23/67
f 20/20/59 19/60/56 25/25/73
f 29/29/85 23/61/68 24/24/71
f 24/24/72 21/59/63 27/62/80
f 24/24/71 28/28/82 29/29/85
f 29/29/86 30/63/89 22/64/65
f 30/65/90 29/66/87 28/67/83
f 17/17/51 32/32/94 27/62/80
f 18/68/54 31/69/92 25/25/74
f 26/26/76 32/32/94 17/17/51
f 31/70/93 32/71/95 26/72/77
f 17/17/51 20/20/60 26/26/76
f 22/64/65 30/63/89 31/69/92
f 25/25/74 19/60/57 18/68/54
f 31/69/92 18/68/54 22/64/65
f 27/27/79 32/73/96 31/31/91
f 27/62/80 21/59/63 17/17/51
f 22/74/66 21/59/62 23/23/67
f 23/61/69 29/29/86 22/64/65
f 27/75/81 30/65/90 28/67/83
f 28/28/84 24/24/72 27/62/80
f 25/76/75 31/70/93 26/72/77
f 26/26/78 20/20/59 25/25/73
